HIERARCHY
ROOT root
{
	OFFSET 0.000000 0.000000 0.000000
	CHANNELS 6 Xposition Yposition Zposition Zrotation Yrotation Xrotation
	JOINT lhip
	{
		OFFSET 0.058581 -0.082280 -0.017664
		CHANNELS 3 Zrotation Yrotation Xrotation
		JOINT lknee
		{
			OFFSET 0.043451 -0.386469 0.008037
			CHANNELS 3 Zrotation Yrotation Xrotation
			JOINT lankle
			{
				OFFSET -0.014790 -0.426874 -0.037428
				CHANNELS 3 Zrotation Yrotation Xrotation
				JOINT ltoe
				{
					OFFSET 0.041054 -0.060286 0.122042
					CHANNELS 3 Zrotation Yrotation Xrotation
					End Site
					{
						OFFSET 0.000000 0.000000 0.000000
					}
				}
			}
		}
	}
	JOINT rhip
	{
		OFFSET -0.060310 -0.090513 -0.013543
		CHANNELS 3 Zrotation Yrotation Xrotation
		JOINT rknee
		{
			OFFSET -0.043257 -0.383688 -0.004843
			CHANNELS 3 Zrotation Yrotation Xrotation
			JOINT rankle
			{
				OFFSET 0.019056 -0.420046 -0.034562
				CHANNELS 3 Zrotation Yrotation Xrotation
				JOINT rtoe
				{
					OFFSET -0.034840 -0.062106 0.130323
					CHANNELS 3 Zrotation Yrotation Xrotation
					End Site
					{
						OFFSET 0.000000 0.000000 0.000000
					}
				}
			}
		}
	}
	JOINT lowerback
	{
		OFFSET 0.004439 0.124404 -0.038385
		CHANNELS 3 Zrotation Yrotation Xrotation
		JOINT upperback
		{
			OFFSET 0.004488 0.137956 0.026820
			CHANNELS 3 Zrotation Yrotation Xrotation
			JOINT chest
			{
				OFFSET -0.002265 0.056032 0.002855
				CHANNELS 3 Zrotation Yrotation Xrotation
				JOINT lowerneck
				{
					OFFSET -0.013390 0.211636 -0.033468
					CHANNELS 3 Zrotation Yrotation Xrotation
					JOINT upperneck
					{
						OFFSET 0.010113 0.088937 0.050410
						CHANNELS 3 Zrotation Yrotation Xrotation
						End Site
						{
							OFFSET 0.000000 0.000000 0.000000
						}
					}
				}
				JOINT lclavicle
				{
					OFFSET 0.071702 0.114000 -0.018898
					CHANNELS 3 Zrotation Yrotation Xrotation
					JOINT lshoulder
					{
						OFFSET 0.122921 0.045205 -0.019046
						CHANNELS 3 Zrotation Yrotation Xrotation
						JOINT lelbow
						{
							OFFSET 0.255332 -0.015649 -0.022946
							CHANNELS 3 Zrotation Yrotation Xrotation
							JOINT lwrist
							{
								OFFSET 0.265709 0.012698 -0.007375
								CHANNELS 3 Zrotation Yrotation Xrotation
								End Site
								{
									OFFSET 0.000000 0.000000 0.000000
								}
							}
						}
					}
				}
				JOINT rclavicle
				{
					OFFSET -0.082954 0.112472 -0.023707
					CHANNELS 3 Zrotation Yrotation Xrotation
					JOINT rshoulder
					{
						OFFSET -0.113228 0.046853 -0.008472
						CHANNELS 3 Zrotation Yrotation Xrotation
						JOINT relbow
						{
							OFFSET -0.260127 -0.014369 -0.031269
							CHANNELS 3 Zrotation Yrotation Xrotation
							JOINT rwrist
							{
								OFFSET -0.269108 0.006794 -0.006027
								CHANNELS 3 Zrotation Yrotation Xrotation
								End Site
								{
									OFFSET 0.000000 0.000000 0.000000
								}
							}
						}
					}
				}
			}
		}
	}
}
MOTION
Frames: 6
Frame Time: 0.033333
0.075106 -1.808873 0.997101 -91.973415 0.535750 92.727540 0.032271 0.490348 -2.543767 -3.221685 -9.798923 -3.922017 2.262735 8.824979 -9.593465 0.000000 -0.000000 0.000000 -0.747001 -2.028463 -7.108751 4.067754 -6.033264 6.511835 -0.979315 -10.580589 -3.318605 0.000000 -0.000000 0.000000 -2.791022 1.920740 8.594280 1.190787 -0.358265 0.192760 0.791941 0.272221 -3.613552 -0.275523 1.933413 4.355688 5.303664 -1.399719 -3.507671 -23.933191 -0.244451 -1.700134 -53.756330 -5.877041 11.938488 12.628444 -21.076357 -9.706859 0.279710 -6.764581 1.508255 24.360335 4.603143 -0.395992 52.903846 6.129318 12.225835 -10.541648 21.482376 -6.330018 0.452769 5.929145 4.360540 
0.076687 -1.806477 0.997017 -92.645380 1.065953 93.271105 1.133296 1.069481 -3.502805 -3.957848 -9.329215 -3.413874 2.433905 8.538464 -9.622710 0.000000 -0.000000 0.000000 -0.387127 -5.538838 -8.528751 4.796053 -4.916488 7.788611 2.640365 -8.150310 -8.947169 0.000000 -0.000000 0.000000 -1.952626 1.829989 9.377277 0.867651 -1.330872 -0.202581 0.258138 1.240775 -4.828544 0.121329 2.325697 3.120520 4.882183 -1.465878 -2.141776 -23.244538 0.736383 -2.889764 -53.381095 -4.603005 12.080463 11.703088 -22.051971 -7.967033 1.446272 -6.447199 -0.201308 24.595079 5.128230 0.105957 52.643332 6.690438 12.778625 -9.371293 20.781297 -3.642900 0.707933 5.748684 2.585867 
0.076415 -1.806395 0.996960 -92.570232 1.087996 93.260690 1.136440 1.072068 -3.630370 -3.945828 -9.380792 -3.161335 2.353520 8.571203 -9.513404 0.000000 -0.000000 0.000000 -0.340206 -5.438722 -8.421806 4.807690 -4.801332 7.639967 2.772640 -8.419788 -8.800709 0.000000 -0.000000 0.000000 -1.974458 1.771175 9.413601 0.867237 -1.316560 -0.442898 0.332320 1.231539 -4.581477 -0.027181 2.087660 2.712801 4.597757 -1.399217 -1.866150 -23.250678 0.751863 -2.961190 -53.264987 -4.788159 12.018950 11.418269 -21.813469 -7.661013 0.582870 -6.456622 -0.472746 24.540902 5.160019 0.061068 52.590195 6.753067 12.972606 -9.054803 20.800225 -3.298193 1.124313 5.632274 2.416965 
0.076129 -1.806375 0.997247 -92.451712 1.187484 93.216597 1.204278 1.048410 -3.742623 -3.876272 -9.499049 -2.878894 2.310623 8.610472 -9.371302 0.000000 -0.000000 0.000000 -0.206917 -5.481228 -8.378937 4.833928 -4.719587 7.731207 2.876599 -8.678848 -8.808331 0.000000 -0.000000 0.000000 -1.824865 1.694491 9.647383 0.820717 -1.313130 -0.821865 0.366518 1.237735 -4.327092 -0.248990 1.664084 1.841147 4.070901 -1.293728 -1.268423 -23.234591 0.820642 -3.154483 -53.115182 -4.912786 12.024468 11.049647 -21.685920 -7.155193 -0.055160 -6.388118 -0.886488 24.457816 5.124845 -0.027304 52.726379 6.853786 13.248489 -8.662604 20.818874 -2.726586 1.517479 5.453154 2.079269 
0.076014 -1.806418 0.997414 -92.395676 1.220990 93.179735 1.221428 1.021718 -3.736875 -3.844518 -9.563217 -2.815233 2.282657 8.631646 -9.343703 0.000000 -0.000000 0.000000 -0.171945 -5.457689 -8.357070 4.846808 -4.725190 7.803984 2.881297 -8.778935 -8.826293 0.000000 -0.000000 0.000000 -1.768212 1.661667 9.745254 0.806543 -1.303833 -0.949980 0.380992 1.223269 -4.214050 -0.315953 1.511637 1.538599 3.879735 -1.255453 -1.100707 -23.256052 0.836215 -3.190537 -53.065263 -4.933127 12.026792 10.978259 -21.728003 -7.013551 -0.104817 -6.358299 -0.999169 24.432970 5.113730 -0.054156 52.804165 6.879193 13.328286 -8.563583 20.840319 -2.598167 1.558839 5.382719 1.994844 
0.075821 -1.806581 0.997822 -92.269540 1.288371 93.100184 1.263578 0.976953 -3.714119 -3.821467 -9.687531 -2.689488 2.202263 8.657326 -9.331277 0.000000 -0.000000 0.000000 -0.101561 -5.430853 -8.308068 4.859561 -4.743078 7.945593 2.896542 -8.939719 -8.851384 0.000000 -0.000000 0.000000 -1.672109 1.588544 9.961844 0.792608 -1.292515 -1.210416 0.425105 1.194430 -3.987353 -0.415126 1.207220 0.941360 3.496333 -1.153213 -0.765727 -23.326795 0.880342 -3.214602 -52.971723 -4.935462 12.055370 10.855134 -21.921418 -6.712971 0.047235 -6.295512 -1.245322 24.392361 5.100416 -0.081247 52.929516 6.914581 13.505315 -8.363482 20.894754 -2.362912 1.554691 5.259265 1.781879 
